HIERARCHY
ROOT Hips
{
	OFFSET -0.001795 -0.223333 0.028219
	CHANNELS 6 Xposition Yposition Zposition Zrotation Yrotation Xrotation 
	JOINT LeftUpLeg
	{
		OFFSET 0.069520 -0.091406 -0.006815
		CHANNELS 3 Zrotation Yrotation Xrotation
		JOINT LeftLeg
		{
			OFFSET 0.034277 -0.375199 -0.004496
			CHANNELS 3 Zrotation Yrotation Xrotation
			JOINT LeftFoot
			{
				OFFSET -0.013596 -0.397961 -0.043693
				CHANNELS 3 Zrotation Yrotation Xrotation
				JOINT LeftToe
				{
					OFFSET 0.026358 -0.055791 0.119288
					CHANNELS 3 Zrotation Yrotation Xrotation
					End Site
					{
						OFFSET 0.000000 0.000000 0.000000
					}
				}
			}
		}
	}
	JOINT RightUpLeg
	{
		OFFSET -0.067670 -0.090522 -0.004320
		CHANNELS 3 Zrotation Yrotation Xrotation
		JOINT RightLeg
		{
			OFFSET -0.038290 -0.382569 -0.008850
			CHANNELS 3 Zrotation Yrotation Xrotation
			JOINT RightFoot
			{
				OFFSET 0.015774 -0.398415 -0.042312
				CHANNELS 3 Zrotation Yrotation Xrotation
				JOINT RightToe
				{
					OFFSET -0.025372 -0.048144 0.123348
					CHANNELS 3 Zrotation Yrotation Xrotation
					End Site
					{
						OFFSET 0.000000 0.000000 0.000000
					}
				}
			}
		}
	}
	JOINT Spine
	{
		OFFSET -0.002533 0.108963 -0.026696
		CHANNELS 3 Zrotation Yrotation Xrotation
		JOINT Spine1
		{
			OFFSET 0.005487 0.135180 0.001092
			CHANNELS 3 Zrotation Yrotation Xrotation
			JOINT Spine2
			{
				OFFSET 0.001457 0.052922 0.025425
				CHANNELS 3 Zrotation Yrotation Xrotation
				JOINT Neck
				{
					OFFSET -0.002778 0.213870 -0.042857
					CHANNELS 3 Zrotation Yrotation Xrotation
					JOINT Head
					{
						OFFSET 0.005152 0.064970 0.051349
						CHANNELS 3 Zrotation Yrotation Xrotation
						End Site
						{
							OFFSET 0.000000 0.000000 0.000000
						}
					}
				}
				JOINT LeftShoulder
				{
					OFFSET 0.078845 0.121749 -0.034090
					CHANNELS 3 Zrotation Yrotation Xrotation
					JOINT LeftArm
					{
						OFFSET 0.090977 0.030469 -0.008868
						CHANNELS 3 Zrotation Yrotation Xrotation
						JOINT LeftForeArm
						{
							OFFSET 0.259612 -0.012772 -0.027456
							CHANNELS 3 Zrotation Yrotation Xrotation
							JOINT LeftHand
							{
								OFFSET 0.249234 0.008986 -0.001171
								CHANNELS 3 Zrotation Yrotation Xrotation
								End Site
								{
									OFFSET 0.000000 0.000000 0.000000
								}
							}
						}
					}
				}
				JOINT RightShoulder
				{
					OFFSET -0.081759 0.118833 -0.038615
					CHANNELS 3 Zrotation Yrotation Xrotation
					JOINT RightArm
					{
						OFFSET -0.096012 0.032551 -0.009143
						CHANNELS 3 Zrotation Yrotation Xrotation
						JOINT RightForeArm
						{
							OFFSET -0.253742 -0.013329 -0.021401
							CHANNELS 3 Zrotation Yrotation Xrotation
							JOINT RightHand
							{
								OFFSET -0.255298 0.007772 -0.005559
								CHANNELS 3 Zrotation Yrotation Xrotation
								End Site
								{
									OFFSET 0.000000 0.000000 0.000000
								}
							}
						}
					}
				}
			}
		}
	}
}
MOTION
Frames: 12
Frame Time: 0.050000
0.000000 0.938973 0.000000 -1.430837 -3.738919 3.121159 -1.429501 0.273834 2.373247 1.990945 0.004798 -4.500300 1.591098 4.516619 3.426774 0.000000 0.000000 0.000000 3.753005 -0.026611 -0.859870 -2.575315 0.309141 0.877463 -1.004593 -3.447727 1.836543 0.000000 0.000000 0.000000 5.058148 0.441950 -5.987435 -2.003354 0.942728 -2.549579 -2.918244 4.512942 8.731677 6.917599 -3.703648 -10.837428 0.000000 0.000000 0.000000 6.252907 -4.598025 1.946026 -9.951414 -9.203396 -0.844112 6.285830 1.524681 0.039674 0.000000 0.000000 0.000000 -5.253929 -1.903913 -0.347308 16.548814 6.276895 -1.182031 -4.709447 6.340762 0.063235 0.000000 0.000000 0.000000 
-0.000724 0.938390 -0.002481 -2.016180 -3.927475 3.525324 -0.236055 0.266302 2.727567 1.398200 0.135768 -6.272579 1.639792 4.547149 3.231450 0.000000 0.000000 0.000000 4.563228 -0.082130 -0.665958 -3.369392 0.331469 0.012367 -1.316989 -4.077010 1.579454 0.000000 0.000000 0.000000 6.224715 0.555169 -6.736097 -2.265604 1.071860 -1.049326 -4.048669 5.217736 7.548442 7.012235 -3.563116 -11.410093 0.000000 0.000000 0.000000 8.035306 -4.111192 2.016941 -8.062706 -10.670095 -0.721296 4.431924 1.086751 0.007548 0.000000 0.000000 0.000000 -5.351391 -3.127696 -0.753935 15.485221 6.146334 -1.130046 -4.390428 7.491009 0.077518 0.000000 0.000000 0.000000 
-0.001303 0.938276 -0.004596 -1.832509 -4.954228 3.500446 -0.151148 0.270162 2.777944 1.119669 0.130814 -5.836718 1.686409 4.350981 2.345398 0.000000 0.000000 0.000000 4.217126 0.000135 -1.244364 -3.060987 0.341101 0.677367 -0.853993 -2.643721 0.920275 0.000000 0.000000 0.000000 6.874869 0.538251 -6.211880 -2.913442 1.320496 -3.896349 -4.158738 7.294547 9.997761 8.145134 -4.210943 -11.758031 0.000000 0.000000 0.000000 9.912475 -4.461813 2.326627 -7.659998 -12.172140 -0.736211 3.451562 3.083327 -0.015997 0.000000 0.000000 0.000000 -5.058426 -3.576597 -1.027856 14.005320 6.851986 -1.116950 -5.035284 5.671070 0.081701 0.000000 0.000000 0.000000 
-0.001801 0.937631 -0.006247 -1.920844 -4.864815 3.760041 0.270895 0.263282 2.877663 0.370957 0.200630 -6.341763 1.607055 4.106995 2.065763 0.000000 0.000000 0.000000 4.407412 0.013844 -1.398204 -2.978044 0.299517 0.188546 -0.707789 -2.375331 1.088535 0.000000 0.000000 0.000000 6.823868 0.640455 -7.223214 -2.487528 1.150940 -2.627704 -4.533650 7.049251 9.771120 7.746122 -3.989172 -11.470464 0.000000 0.000000 0.000000 10.391878 -4.872976 2.457482 -6.648263 -11.370856 -0.719847 3.002040 3.760710 -0.034397 0.000000 0.000000 0.000000 -5.600664 -3.583994 -0.990560 11.704139 6.920643 -0.990890 -3.854921 4.179929 0.101668 0.000000 0.000000 0.000000 
-0.002412 0.937937 -0.007553 -1.675176 -5.022062 3.660703 -0.087029 0.275944 2.859665 0.464279 0.190556 -6.236183 1.196113 3.198313 1.863756 0.000000 0.000000 0.000000 4.191469 0.078942 -1.839933 -3.165685 0.376717 1.039227 -0.556064 -1.990104 1.055754 0.000000 0.000000 0.000000 6.698334 0.611921 -6.983471 -2.707443 1.244844 -2.877757 -4.320248 7.349547 9.409585 7.897867 -4.199493 -10.811313 0.000000 0.000000 0.000000 10.591656 -5.028404 2.533903 -6.151053 -11.206015 -0.703133 2.402335 3.419015 -0.048619 0.000000 0.000000 0.000000 -5.748577 -4.050795 -1.130642 10.822033 7.175390 -0.933755 -3.467912 4.069336 0.105172 0.000000 0.000000 0.000000 
-0.002820 0.937858 -0.008542 -1.650774 -4.558270 3.680845 -0.141952 0.278902 2.878429 0.586666 0.179573 -6.160025 0.804065 2.339234 1.689307 0.000000 0.000000 0.000000 4.035870 0.097621 -1.932907 -2.950929 0.354342 1.015900 -0.531191 -1.937481 1.081312 0.000000 0.000000 0.000000 6.587002 0.610703 -7.074314 -2.570994 1.191868 -2.530573 -4.145055 6.913589 9.354264 7.216170 -3.767402 -10.631004 0.000000 0.000000 0.000000 10.624110 -4.362202 2.367750 -6.129259 -11.212232 -0.702644 2.895039 3.549607 -0.035287 0.000000 0.000000 0.000000 -6.706385 -4.274160 -1.126614 10.860721 7.261017 -0.921743 -4.115210 3.944812 0.101141 0.000000 0.000000 0.000000 
-0.003180 0.938380 -0.009513 -1.370669 -4.312450 3.509667 -0.098898 0.293396 3.047309 0.306069 0.209785 -6.482013 0.410071 1.675510 2.091817 0.000000 0.000000 0.000000 3.790152 0.117748 -2.022401 -3.060111 0.381230 1.215803 -0.393219 -1.553723 1.003012 0.000000 0.000000 0.000000 6.519859 0.581384 -6.820230 -2.466688 1.145469 -2.640624 -4.314655 6.744781 9.402052 7.459804 -3.915306 -10.779772 0.000000 0.000000 0.000000 10.314306 -4.292206 2.323685 -5.685173 -10.422058 -0.686737 3.201423 3.094673 -0.022250 0.000000 0.000000 0.000000 -6.457118 -4.382911 -1.173419 9.752633 7.070271 -0.884444 -3.767537 3.854643 0.102058 0.000000 0.000000 0.000000 
-0.003468 0.938629 -0.010415 -1.250014 -4.142429 3.486671 -0.043861 0.281892 2.955785 0.259726 0.211703 -6.465572 0.107655 0.992415 1.919047 0.000000 0.000000 0.000000 3.449676 0.127620 -2.039553 -2.843553 0.359050 1.227644 -0.324397 -1.309242 0.869920 0.000000 0.000000 0.000000 6.590522 0.565257 -6.653943 -2.551948 1.185681 -2.584693 -4.228196 6.769382 9.404797 7.254840 -3.711945 -11.050579 0.000000 0.000000 0.000000 10.017988 -4.239323 2.296408 -5.424692 -9.960201 -0.673252 3.435409 3.087452 -0.016606 0.000000 0.000000 0.000000 -6.509408 -4.248830 -1.139300 9.354006 6.359882 -0.886529 -3.880922 3.479009 0.102065 0.000000 0.000000 0.000000 
-0.003833 0.938919 -0.011217 -1.092795 -4.071485 3.526059 -0.046073 0.272298 2.857298 0.039716 0.225740 -6.495461 0.050077 0.987884 2.212632 0.000000 0.000000 0.000000 3.312358 0.133766 -2.066787 -2.827448 0.355072 1.190787 -0.299025 -1.245783 0.869883 0.000000 0.000000 0.000000 6.652005 0.549572 -6.496653 -2.519998 1.170077 -2.714422 -4.384922 6.914294 9.550527 7.093176 -3.597293 -10.979516 0.000000 0.000000 0.000000 9.819965 -4.347761 2.320554 -5.061684 -9.634269 -0.658351 3.484535 3.871162 -0.020995 0.000000 0.000000 0.000000 -6.528027 -4.227097 -1.150170 8.830352 5.553500 -0.882485 -3.561966 3.150192 0.102370 0.000000 0.000000 0.000000 
-0.004370 0.939062 -0.011988 -0.917682 -3.811444 3.448827 0.116374 0.254113 2.739251 -0.275065 0.244083 -6.504926 0.089714 1.076161 2.212360 0.000000 0.000000 0.000000 3.060896 0.137996 -2.046358 -2.671171 0.335682 1.140914 -0.314579 -1.230916 0.777441 0.000000 0.000000 0.000000 6.841897 0.534655 -6.296284 -2.662956 1.232813 -3.007622 -4.465152 6.896293 9.802128 6.926131 -3.435517 -11.205928 0.000000 0.000000 0.000000 9.415117 -4.773750 2.392685 -4.800162 -9.225804 -0.645358 3.613952 4.368290 -0.020349 0.000000 0.000000 0.000000 -6.361206 -3.967458 -1.094798 8.079376 4.731549 -0.854662 -3.360028 2.716126 0.100438 0.000000 0.000000 0.000000 
-0.005008 0.938740 -0.012737 -0.852900 -3.934873 3.424554 0.112556 0.237263 2.557310 -0.231902 0.230314 -6.181036 0.213795 1.166234 1.789204 0.000000 0.000000 0.000000 2.993415 0.119638 -1.893936 -2.548931 0.318998 1.094184 -0.312827 -1.181466 0.693868 0.000000 0.000000 0.000000 6.970356 0.526666 -6.157394 -2.797380 1.293511 -2.882084 -4.496881 7.021702 9.622782 6.964070 -3.453612 -11.189429 0.000000 0.000000 0.000000 9.225440 -5.201267 2.489945 -4.807852 -8.765095 -0.633898 3.489183 4.622541 -0.026963 0.000000 0.000000 0.000000 -6.347574 -3.658594 -1.007228 7.725693 4.101550 -0.835081 -3.242511 2.348761 0.098276 0.000000 0.000000 0.000000 
-0.005635 0.938438 -0.013401 -0.827993 -4.090355 3.250928 0.205130 0.247582 2.695935 -0.310383 0.228505 -5.981231 0.350146 1.415854 1.711240 0.000000 0.000000 0.000000 2.822799 0.092290 -1.640675 -2.274564 0.285659 1.042466 -0.218196 -0.980791 0.754110 0.000000 0.000000 0.000000 7.060736 0.515156 -5.967306 -2.815018 1.299208 -2.994297 -4.502090 7.257408 9.557168 7.223352 -3.628114 -11.146990 0.000000 0.000000 0.000000 8.984258 -5.928738 2.660887 -4.848280 -8.268796 -0.624044 3.500936 4.753501 -0.028332 0.000000 0.000000 0.000000 -6.328992 -3.269872 -0.903659 7.366317 3.623362 -0.812382 -3.251194 2.125932 0.097861 0.000000 0.000000 0.000000 
